<svg xmlns="http://www.w3.org/2000/svg" width="709" height="211" viewBox="0 0 709 211">
  <g fill="#FFF" fill-rule="evenodd">
    <path d="M634.334 70.834C636.314 70.834 637.92 72.439 637.92 74.419 637.92 76.4 636.314 78.005 634.334 78.005 632.353 78.005 630.748 76.4 630.748 74.419 630.748 72.439 632.353 70.834 634.334 70.834M682.577 70.834C684.557 70.834 686.163 72.439 686.163 74.419 686.163 76.4 684.557 78.005 682.577 78.005 680.596 78.005 678.991 76.4 678.991 74.419 678.991 72.439 680.596 70.834 682.577 70.834"/>
    <path d="M682.577,37.585 C681.273,37.585 680.296,38.237 680.296,39.867 C680.296,40.519 681.599,41.171 682.577,41.171 C694.638,41.171 704.417,50.95 704.417,63.01 C704.417,75.071 694.638,84.85 682.577,84.85 C670.516,84.85 660.737,75.071 660.737,63.01 C660.737,61.707 660.086,60.729 658.456,60.729 C657.152,60.729 656.174,61.381 656.174,63.01 C656.174,75.071 646.394,84.85 634.334,84.85 C622.273,84.85 612.494,75.071 612.494,63.01 C612.494,50.95 622.273,41.171 634.334,41.171 C635.638,41.171 636.616,40.519 636.616,38.889 C636.616,37.259 635.964,36.607 634.334,36.607 C620.317,36.607 608.257,48.016 608.257,62.685 C608.257,76.701 619.665,88.762 634.334,88.762 C645.091,88.762 654.218,82.243 658.456,72.464 C662.041,81.59 671.82,88.762 682.577,88.762 C696.594,88.762 708.655,77.353 708.655,62.685 C708.98,48.994 697.572,37.585 682.577,37.585"/>
    <polyline points="94.205 144.502 77.906 144.502 55.089 170.906 55.089 144.502 41.724 144.502 41.724 171.558 19.232 144.502 1.956 144.502 26.729 172.861 0 209.044 17.602 209.044 37.486 180.685 41.724 184.923 41.724 209.044 55.089 209.044 55.089 184.923 58.674 180.685 79.21 209.044 97.138 209.044 69.431 172.861 94.205 144.502"/>
    <polyline points="189.061 209.044 203.404 209.044 203.404 156.564 228.178 156.564 228.178 209.044 242.52 209.044 242.52 144.502 189.061 144.502 189.061 209.044"/>
    <polyline points="336.725 156.564 355.957 156.564 355.957 209.044 369.973 209.044 369.973 156.564 389.206 156.564 389.206 144.502 336.725 144.502 336.725 156.564"/>
    <path d="M519.594 170.254C518.941 171.558 518.289 172.535 516.659 173.188 515.355 173.84 514.378 174.491 512.422 174.491 511.118 174.491 509.488 175.144 507.532 175.144L496.124 175.144 496.124 155.911 507.532 155.911C508.836 155.911 511.118 155.911 512.422 156.564 513.725 156.564 515.355 157.215 516.659 157.867 517.964 158.519 518.941 159.171 519.594 160.801 520.245 162.105 520.245 163.734 520.245 165.691 520.245 167.647 520.245 169.602 519.594 170.254zM529.372 151.022C527.091 148.74 525.135 147.437 522.201 146.132 519.267 144.828 515.681 144.828 511.444 144.828L482.432 144.828 482.432 209.37 496.449 209.37 496.449 185.901 511.444 185.901C515.681 185.901 519.267 185.248 522.201 184.597 525.135 183.293 527.091 181.663 529.372 179.707 531.654 177.425 532.305 175.47 532.958 173.188 533.61 170.906 534.262 168.298 534.262 165.364 534.262 162.431 533.61 160.475 532.958 157.541 532.305 155.26 531.002 153.304 529.372 151.022zM668.56 195.027C666.279 197.961 663.019 199.265 658.781 199.265 655.196 199.265 653.24 198.613 650.958 196.984 648.677 195.68 646.721 194.05 645.417 192.094 644.113 190.138 643.135 187.857 642.483 184.923 641.831 181.988 641.831 180.033 641.831 177.1 641.831 174.165 641.831 171.558 642.483 168.624 643.135 165.691 643.787 163.734 645.417 161.453 646.721 159.171 649.003 157.867 650.958 156.564 653.24 155.26 655.847 154.281 658.781 154.281 660.086 154.281 662.367 154.281 663.671 154.934 664.974 155.585 666.604 156.237 667.909 157.215 669.213 157.867 670.19 159.497 670.843 160.801 671.494 162.105 672.146 163.734 672.146 165.038L685.511 165.038C684.859 161.453 684.207 157.867 682.577 155.26 681.273 152.325 678.991 150.37 676.057 148.088 673.124 145.807 670.516 144.502 667.583 143.851 663.997 143.198 661.063 142.547 657.804 142.547 652.914 142.547 648.677 143.198 644.439 145.481 640.201 146.784 637.267 149.718 634.66 152.651 631.726 155.585 629.77 159.171 628.14 163.408 626.837 167.647 625.859 171.884 625.859 176.774 625.859 181.663 626.511 185.901 628.14 190.138 629.444 194.375 631.726 197.961 634.66 200.895 637.594 203.828 640.201 206.437 644.439 208.067 648.677 209.37 652.914 211 657.804 211 662.041 211 665.627 210.348 668.56 208.718 672.146 207.414 675.08 205.784 677.036 203.828 679.317 201.547 681.273 198.94 682.577 195.354 683.881 191.768 684.859 188.182 685.511 184.597L673.45 184.597C672.798 188.508 671.169 192.094 668.56 195.027M533.238 24.486L527.987 66.491 527.987 70.167C527.987 83.469 527.987 83.469 523.087 90.12 522.912 90.47 522.737 90.82 522.737 91.17L522.737 98.171C522.737 100.096 521.162 101.672 519.236 101.672L487.731 101.672C485.806 101.672 484.231 100.096 484.231 98.171L484.231 91.17C484.231 90.645 484.056 90.12 483.706 89.77 483.531 89.77 477.405 84.519 477.23 77.343 477.23 68.942 477.756 68.067 481.431 66.492 481.796 66.309 489.721 58.347 491.232 56.165 491.744 55.398 492.38 54.591 493.099 54.085 493.304 54.066 493.504 54.009 493.682 53.89 493.893 53.784 494.424 53.554 495.078 53.654 495.253 53.706 495.429 53.783 495.608 53.89 497.533 54.94 498.584 58.441 497.708 60.366 496.833 62.291 494.208 65.792 486.507 72.267 485.806 72.792 485.632 74.018 486.332 74.717 486.681 75.243 487.207 75.418 487.732 75.418 488.082 75.418 488.607 75.243 488.957 74.893 490.619 73.455 492.131 72.099 493.484 70.823 495.031 72.607 497.068 73.668 499.108 73.668 501.637 73.668 503.787 72.261 505.169 70.292 506.628 72.261 508.832 73.668 511.36 73.668 515.911 73.668 519.236 69.117 519.061 64.917L519.061 45.663C519.061 45.369 519.043 45.072 519.009 44.776 519.029 44.723 519.048 44.669 519.061 44.613L524.311 25.361C524.837 23.26 526.412 19.585 528.862 19.585 530.613 19.585 531.663 19.935 532.363 20.635 533.063 21.335 533.413 22.735 533.238 24.486zM480.555 15.559C481.43 14.684 482.481 14.159 483.356 14.159 484.581 14.159 485.806 14.509 487.031 17.659 487.382 18.71 487.731 19.935 487.907 21.86L491.177 44.236C491.099 44.711 491.057 45.19 491.057 45.663L491.057 51.187C490.196 51.823 489.309 52.748 488.431 54.065 487.303 55.615 485.381 58.415 482.205 61.184L478.98 19.585C478.805 18.185 479.506 16.784 480.555 15.559zM500.213 63.27C500.548 62.741 500.823 62.239 501.034 61.766 502.784 58.09 501.034 52.84 497.533 50.739 496.996 50.432 495.921 49.924 494.557 49.936L494.557 45.663C494.557 44.458 495.024 43.169 495.768 42.169 496.484 41.341 497.398 40.763 498.408 40.763 500.509 40.763 502.259 42.863 502.784 44.788 502.926 45.07 503.095 45.323 503.305 45.526 503.306 45.572 503.309 64.916 503.309 64.916 503.309 67.366 501.559 70.167 499.108 70.167 498.058 70.167 497.008 69.641 496.133 68.591 498.004 66.588 499.362 64.789 500.213 63.27zM515.736 64.916C515.736 67.366 513.985 70.167 511.535 70.167 509.085 70.167 506.984 67.366 506.984 64.916L506.984 45.663C506.984 44.068 507.727 42.324 508.922 41.301 509.492 40.862 510.14 40.588 510.835 40.588 512.935 40.588 514.685 42.688 515.211 44.613 515.349 44.892 515.517 45.141 515.722 45.342 515.73 45.45 515.736 64.916 515.736 64.916zM534.988 18.185C533.588 16.609 531.488 15.909 528.862 15.909 526.412 15.909 522.912 17.309 520.986 24.135L516.786 39.713C515.386 38.137 513.46 36.912 511.184 36.912 511.158 36.912 511.132 36.915 511.105 36.915 511.073 36.915 511.042 36.912 511.01 36.912 508.462 36.912 506.353 38.339 504.991 40.332 504.967 40.303 504.942 40.275 504.919 40.246 503.562 38.438 501.577 37.115 499.29 36.935 499.269 36.934 499.249 36.931 499.228 36.93 499.073 36.919 498.916 36.912 498.758 36.912 498.634 36.912 498.509 36.917 498.384 36.923 498.33 36.927 498.277 36.931 498.224 36.936 498.159 36.941 498.095 36.947 498.029 36.954 497.958 36.962 497.886 36.971 497.815 36.981 497.78 36.986 497.745 36.992 497.71 36.998 496.218 37.235 494.908 37.969 493.855 38.999L491.232 20.985C491.057 19.235 490.707 17.659 490.182 16.434 489.657 15.034 488.082 10.658 483.356 10.658 481.43 10.658 479.506 11.534 477.93 13.284 476.18 15.034 475.305 17.484 475.48 19.759L478.805 63.866C474.255 66.141 473.73 69.466 473.73 76.992L473.73 77.168C473.73 84.519 478.805 90.119 480.731 91.869L480.731 98.171C480.731 102.021 483.882 105.172 487.732 105.172L519.236 105.172C523.087 105.172 526.237 102.021 526.237 98.171L526.237 91.869C531.488 84.694 531.488 83.818 531.488 70.167L531.488 66.841 536.739 24.836C536.914 22.035 536.388 19.76 534.988 18.185zM368.285 25.835L373.705 38.421 363.719 36.189 368.285 25.835zM361.839 11.17C361.839 7.089 365.159 3.768 369.241 3.768 373.322 3.768 376.642 7.089 376.642 11.17 376.642 15.252 373.322 18.572 369.241 18.572 367.941 18.572 366.719 18.234 365.656 17.643L364.983 17.219C363.084 15.879 361.839 13.668 361.839 11.17zM383.378 56.19C383.179 55.636 382.718 55.188 382.105 55.035L358.181 49.07C358.137 49.059 358.093 49.051 358.049 49.044L362.221 39.582 376.379 42.747C376.512 42.777 376.645 42.791 376.779 42.791 377.12 42.791 377.455 42.695 377.75 42.507 378.16 42.247 378.444 41.842 378.551 41.368 378.646 40.94 378.582 40.512 378.396 40.148 378.377 40.083 378.354 40.019 378.327 39.955L370.635 22.095C376.053 21.407 380.257 16.772 380.257 11.17 380.257 5.096 375.315.154 369.241.154 363.166.154 358.224 5.096 358.224 11.17 358.224 11.818 358.284 12.451 358.391 13.069L351.137 8.5C350.288 7.965 349.163 8.221 348.629 9.069 348.491 9.287 348.405 9.527 348.368 9.774L344.885 31.05C344.805 31.53 344.919 32.011 345.202 32.406 345.486 32.801 345.906 33.061 346.386 33.14 346.485 33.156 346.585 33.164 346.683 33.164 347.061 33.164 347.428 33.047 347.741 32.822 348.136 32.538 348.396 32.118 348.474 31.638L351.52 13.041 365.945 22.125 360.098 35.38 356.126 34.492C355.147 34.273 354.173 34.891 353.954 35.87 353.735 36.849 354.353 37.823 355.333 38.043L358.602 38.773 354.027 49.145C353.878 49.486 353.837 49.855 353.904 50.213 353.901 50.255 353.898 50.296 353.898 50.337L353.898 103.73C353.898 104.734 354.714 105.549 355.718 105.549 356.72 105.549 357.536 104.734 357.536 103.73L357.536 52.659 379.67 58.177 374.089 82.352C373.979 82.826 374.061 83.314 374.319 83.726 374.576 84.138 374.979 84.425 375.452 84.534 375.589 84.566 375.727 84.581 375.865 84.581 376.202 84.581 376.532 84.487 376.825 84.304 377.237 84.047 377.524 83.644 377.634 83.171L383.564 57.484C383.67 57.027 383.59 56.57 383.378 56.19zM82.741 100.278L50.991 100.278 51.007 100.194 51.007 85.405C55.055 90.495 61.693 93.85 69.223 93.85 76.753 93.85 83.422 90.504 87.468 85.409 86.576 93.196 83.92 98.328 82.741 100.278zM15.357 100.275C13.754 95.241 12.596 90.871 11.757 86.939 15.857 91.162 21.901 93.85 28.653 93.85 36.182 93.85 42.817 90.495 46.868 85.405L46.868 100.194 46.884 100.278 15.357 100.275zM91.55 74.378L91.574 73.954 91.465 73.409C90.386 64.798 87.134 54.591 79.886 43.033L78.869 41.447C74.357 34.481 68.744 25.821 80.1 12.747 80.851 11.884 80.754 10.579 79.896 9.828 79.035 9.083 77.736 9.174 76.975 10.034 63.584 25.455 70.98 36.875 75.392 43.696L76.378 45.234C83.379 56.392 86.443 66.162 87.4 74.293 87.186 82.824 79.135 89.716 69.223 89.716 59.174 89.716 51.007 82.646 51.007 73.958 51.007 72.82 50.083 71.891 48.94 71.891 47.799 71.891 46.872 72.82 46.872 73.958 46.872 82.655 38.699 89.716 28.659 89.716 18.615 89.716 10.441 82.646 10.441 73.958 10.441 73.578 10.31 73.239 10.134 72.937 10.272 62.932 13.961 57.376 18.41 50.757 19.752 48.757 21.147 46.678 22.507 44.382 34.84 23.588 21.089 10.034 20.948 9.899 20.13 9.114 18.82 9.142 18.024 9.964 17.239 10.787 17.265 12.097 18.091 12.886 18.205 12.995 29.634 24.27 18.954 42.273 17.636 44.494 16.284 46.507 14.978 48.445 7.127 60.133.926 69.363 11.893 102.979 12.169 103.826 12.965 104.408 13.861 104.408L83.855 104.408C84.51 104.408 85.14 104.094 85.519 103.562 86 102.91 93.46 92.237 91.55 74.378zM256.045 78.638C256.045 81.537 253.685 83.897 250.786 83.897L242.023 83.897 242.023 80.391 247.281 80.391C250.18 80.391 252.539 78.032 252.539 75.133L252.539 57.606C252.539 54.707 250.18 52.348 247.281 52.348L242.023 52.348 242.023 48.842 250.786 48.842C253.685 48.842 256.045 51.201 256.045 54.1L256.045 78.638zM231.507 101.019L196.452 101.019C192.586 101.019 189.441 97.875 189.441 94.008L238.517 94.008C238.517 97.875 235.373 101.019 231.507 101.019zM184.183 44.932L182.43 44.932C181.463 44.932 180.678 44.147 180.678 43.179L180.678 29.157C180.678 25.291 183.822 22.147 187.689 22.147 188.181 22.147 188.705 22.214 189.291 22.352 189.757 22.461 190.235 22.38 190.632 22.126 191.031 21.872 191.31 21.47 191.408 21.009 192.345 16.59 196.31 13.383 200.834 13.383 203.806 13.383 206.571 14.734 208.416 17.087 208.908 17.712 209.762 17.935 210.495 17.612 211.603 17.132 212.775 16.888 213.979 16.888 217.271 16.888 220.254 18.713 221.767 21.649 222.005 22.111 222.436 22.445 222.945 22.559 223.456 22.669 223.988 22.551 224.397 22.233 225.952 21.028 227.805 20.394 229.754 20.394 234.586 20.394 238.517 24.325 238.517 29.157 238.517 29.743 238.456 30.33 238.335 30.91L219.355 30.91C218.386 30.91 217.602 31.694 217.602 32.663 217.602 37.495 213.671 41.426 208.839 41.426 206.015 41.426 203.341 40.031 201.688 37.695 201.367 37.243 200.853 36.969 200.3 36.955 199.721 36.943 199.218 37.19 198.878 37.627 197.858 38.927 196.356 39.674 194.761 39.674L191.311 39.674C190.368 39.674 189.455 39.409 188.602 38.887 188.06 38.557 187.386 38.547 186.83 38.854 186.278 39.164 185.936 39.749 185.936 40.382L185.936 43.179C185.936 44.147 185.151 44.932 184.183 44.932zM242.023 55.853L247.281 55.853C248.248 55.853 249.033 56.638 249.033 57.606L249.033 75.133C249.033 76.101 248.248 76.886 247.281 76.886L242.023 76.886 242.023 55.853zM231.507 55.448C231.507 53.515 233.079 51.943 235.012 51.943 236.945 51.943 238.517 53.515 238.517 55.448L238.517 90.503 231.507 90.503 231.507 55.448zM196.452 90.503L189.441 90.503 189.441 55.448C189.441 53.515 191.013 51.943 192.947 51.943 194.88 51.943 196.452 53.515 196.452 55.448L196.452 90.503zM206.969 90.503L199.958 90.503 199.958 55.448C199.958 53.515 201.53 51.943 203.463 51.943 205.396 51.943 206.969 53.515 206.969 55.448L206.969 90.503zM217.485 90.503L210.474 90.503 210.474 55.448C210.474 53.515 212.046 51.943 213.979 51.943 215.912 51.943 217.485 53.515 217.485 55.448L217.485 90.503zM224.495 48.438C222.39 48.438 220.524 49.387 219.238 50.859 217.951 49.387 216.084 48.438 213.979 48.438 211.874 48.438 210.008 49.387 208.721 50.859 207.435 49.387 205.568 48.438 203.463 48.438 201.358 48.438 199.491 49.387 198.205 50.859 196.918 49.387 195.052 48.438 192.947 48.438 191.664 48.438 190.477 48.809 189.441 49.412L189.441 42.967C190.058 43.107 190.684 43.179 191.311 43.179L194.761 43.179C196.736 43.179 198.617 42.508 200.145 41.292 202.436 43.598 205.563 44.932 208.839 44.932 215.01 44.932 220.13 40.354 220.983 34.416L238.517 34.416 238.517 49.412C237.482 48.809 236.295 48.438 235.012 48.438 232.907 48.438 231.04 49.387 229.754 50.859 228.467 49.387 226.6 48.438 224.495 48.438zM228.001 90.503L220.99 90.503 220.99 55.448C220.99 53.515 222.562 51.943 224.495 51.943 226.429 51.943 228.001 53.515 228.001 55.448L228.001 90.503zM250.786 45.337L242.023 45.337 242.023 32.663C242.023 32.309 241.891 31.999 241.711 31.723 241.897 30.873 242.023 30.018 242.023 29.157 242.023 22.394 236.517 16.888 229.754 16.888 227.67 16.888 225.665 17.405 223.868 18.398 221.577 15.264 217.937 13.383 213.979 13.383 212.73 13.383 211.506 13.569 210.325 13.941 207.848 11.345 204.455 9.878 200.834 9.878 195.229 9.878 190.255 13.49 188.43 18.673 188.179 18.652 187.934 18.641 187.689 18.641 181.889 18.641 177.172 23.358 177.172 29.157L177.172 43.179C177.172 46.078 179.532 48.438 182.43 48.438L184.183 48.438C184.8 48.438 185.386 48.311 185.936 48.115L185.936 94.008C185.936 99.808 190.653 104.524 196.452 104.524L231.507 104.524C237.306 104.524 242.023 99.808 242.023 94.008L242.023 87.402 250.786 87.402C255.618 87.402 259.55 83.471 259.55 78.638L259.55 54.1C259.55 49.27 255.618 45.337 250.786 45.337z"/>
  </g>
</svg>
